<svg version="1.1" xmlns="http://www.w3.org/2000/svg" xmlns:xlink="http://www.w3.org/1999/xlink" width="700" height="700" viewBox="406,66,700,700"><defs><clipPath id="clip-1"><rect x="456" y="266" width="600" height="300" id="clip-1" fill="none" stroke="none" stroke-width="1" stroke-linecap="butt" stroke-linejoin="miter"/></clipPath></defs><g id="document" fill="#ffffff" fill-rule="nonzero" stroke="#000000" stroke-width="0" stroke-linecap="butt" stroke-linejoin="miter" stroke-miterlimit="10" stroke-dasharray="" stroke-dashoffset="0" font-family="none" font-weight="none" font-size="none" text-anchor="none" style="mix-blend-mode: normal"><rect x="406" y="47.14286" transform="scale(1,1.4)" width="700" height="500" id="Shape 1 1" vector-effect="non-scaling-stroke"/></g><g fill="none" fill-rule="nonzero" stroke="none" stroke-width="none" stroke-linecap="none" stroke-linejoin="none" stroke-miterlimit="10" stroke-dasharray="" stroke-dashoffset="0" font-family="none" font-weight="none" font-size="none" text-anchor="none" style="mix-blend-mode: normal"><g><g id="stage"><g id="layer1 1"><g clip-path="url(#clip-1)" id="Group 1"><g id="Group 1" fill="#ffffff" stroke="#ffffff" stroke-width="0" stroke-linecap="butt" stroke-linejoin="miter"><rect x="532" y="443.33333" transform="scale(0.85714,0.6)" width="700" height="500" id="Shape 1"/></g><g id="Group 1" fill-opacity="0" fill="#000000" stroke="#ffffff" stroke-width="20" stroke-linecap="round" stroke-linejoin="round"><g id="Group 1"><g id="Group 1"><path d="M568.71862,345.48791c-10.36535,-26.09231 -21.19714,-51.55863 -51.41425,-49.76921c-32.6681,1.93456 -60.70719,35.34518 -44.77486,67.85779c9.75917,19.91524 27.31699,28.64093 46.90391,36.0178c32.22075,12.13505 47.22075,9.64689 72.91946,33.90046c18.5937,18.19709 35.17614,49.73305 21.48063,75.22646c-13.49791,25.12558 -42.2108,30.11479 -68.42004,29.813c-10.19277,-0.11737 -23.50988,-6.4667 -31.102,-14.15438c-13.99144,-14.16753 -16.88847,-42.57632 -7.3252,-58.52287c20.18261,-33.65406 54.32606,-42.53048 80.56651,-70.98336c15.6554,-18.38311 29.54772,-38.0381 41.70172,-58.91909c3.26138,-5.60317 6.34464,-11.30802 9.25632,-17.10121c0.83119,-1.65376 0.61754,-5.28565 2.44179,-4.98704c1.32801,0.21738 2.65105,8.91447 2.80988,9.94812c1.56232,10.16707 1.04906,20.68316 0.76877,30.92884c-0.80274,29.3437 -1.54696,58.0894 0.83492,87.3659c0.73262,9.00484 1.39322,18.01666 2.03417,27.02855c0.22918,3.22227 0.45711,6.44471 0.67099,9.66805c0.04545,0.68503 0.09137,1.37003 0.13372,2.05526c0.05449,0.8818 0.00594,3.51627 0.1568,2.6458c2.68247,-15.4779 2.83387,-32.42912 2.72619,-48.0968c-0.08161,-11.87374 -0.13538,-23.66047 0.81048,-35.51064c1.37878,-14.81919 3.65073,-29.45772 7.00837,-43.95986c4.94657,-21.36501 13.18743,-40.81369 36.82306,-45.88893c3.39281,-0.72853 6.94188,-1.16104 10.41398,-1.06107c7.96435,0.22932 15.82346,2.09903 22.31146,6.91066c13.75012,10.19736 13.2545,30.09787 5.90738,43.91464c-7.12116,13.39183 -20.58948,22.64097 -33.8087,29.30961c-5.58012,2.81498 -11.45879,5.07184 -17.44536,6.85755c-0.563,0.16794 -8.23843,1.59901 -8.61208,2.2292c-2.06123,3.47639 3.0317,12.59858 4.88205,15.90235c7.34077,13.10688 17.07952,25.31338 26.36066,37.11744c8.83355,11.03557 18.12686,21.35437 29.86952,29.38311c25.04805,17.12595 63.33971,24.16918 89.43738,5.96471c8.84783,-6.17181 16.59536,-13.93006 22.97901,-22.62705c6.1292,-8.35033 11.91448,-17.77272 14.54533,-27.89936c4.39125,-16.90275 -3.64863,-38.70914 -24.1445,-37.8081c-4.09176,0.17988 -7.60607,1.56145 -11.25218,3.33973c-5.02685,2.98584 -9.18418,6.7832 -12.51384,11.61198c-17.59871,25.52225 5.95026,55.42244 34.32221,54.17234c26.25022,-1.15661 42.65264,-22.15398 51.79097,-44.96456c2.25976,-5.64067 4.00832,-11.50668 5.33313,-17.43526c0.26939,-1.20551 0.53614,-5.81446 1.25938,-6.57911c3.07717,-3.25338 14.0418,3.28063 16.30187,4.93353c14.79675,10.82157 22.57843,28.31734 22.59381,46.39793c-0.48539,12.37598 -7.97617,27.80653 -22.94405,25.87732c-11.64523,-1.50095 -26.54141,-13.89562 -21.69709,-27.23663c4.515,-12.43409 21.11836,-16.59751 32.71995,-18.03337c18.03156,-2.23166 36.17079,0.06288 54.09769,-3.75216c8.24638,-1.75492 17.09644,-4.28907 23.45895,-10.11802c8.91888,-8.17093 3.04026,-21.49155 -8.56709,-21.81255c-9.7475,-0.26956 -17.12174,7.19603 -22.42687,14.49458c-6.60307,10.51032 -12.42433,29.14315 2.76194,35.11394c2.18493,0.85905 3.68739,0.66763 6.25002,0.64287c4.35629,-0.04209 8.90923,-2.04322 12.55113,-4.33844c3.25703,-2.05267 4.69686,-4.22879 8.69998,-2.01001c6.46167,3.58146 10.35144,10.63735 14.85178,16.23823c4.29227,5.34193 9.45785,9.38477 15.5815,12.43532" id="Path 1"/></g></g></g></g></g></g></g></g></svg>